<?xml version="1.0" encoding="utf-8"?>
<!-- Generator: Adobe Illustrator 25.4.1, SVG Export Plug-In . SVG Version: 6.00 Build 0)  -->
<svg version="1.1" id="Layer_1" xmlns="http://www.w3.org/2000/svg" xmlns:xlink="http://www.w3.org/1999/xlink" x="0px" y="0px"
	 viewBox="0 0 512 512" style="enable-background:new 0 0 512 512;" xml:space="preserve">
<style type="text/css">
	.st0{fill:#C02881;}
</style>
<path class="st0" d="M507.6,351.4l-39.7-39.7v-136l25.9-9.3c5.9-2.1,9.9-7.8,9.9-14.1c0-6.3-4-12-9.9-14.1L257,52.4
	c-3.3-1.2-6.9-1.2-10.2,0L9.9,138.2c-5.9,2.1-9.9,7.8-9.9,14c0,6.3,3.9,11.9,9.8,14.1l87.4,32.4v98.8c0,3.1,0.9,6.1,2.7,8.6
	c1,1.4,10.1,13.9,33.5,25.6c29.6,14.9,68.3,22.4,115.2,22.4c46.9,0,85.8-7.5,115.8-22.4c23.6-11.7,33.1-24.1,34.1-25.4
	c1.9-2.6,2.9-5.7,2.9-8.8v-97.9l36.5-13.2v125.2l-39.7,39.7c-2.8,2.8-4.4,6.6-4.4,10.6c0,4,1.6,7.8,4.4,10.6l39.7,39.7v33.3
	c0,8.3,6.7,15,15,15s15-6.7,15-15v-33.3l39.7-39.7C513.5,366.7,513.5,357.2,507.6,351.4L507.6,351.4z M251.9,82.4l192.7,69.8
	l-195.9,70.6L58.6,152.4L251.9,82.4z M371.5,291.6c-51.3,46.1-203.6,40.8-244.2,0.1v-81.9l116.2,43.1c1.8,0.3,3.6,1.9,10.3,0
	l117.7-42.4L371.5,291.6L371.5,291.6z M453,384.8L430.1,362l22.8-22.8l22.8,22.8L453,384.8z"/>
</svg>
