<?xml version="1.0" encoding="utf-8"?>
<!-- Generator: Adobe Illustrator 25.4.1, SVG Export Plug-In . SVG Version: 6.00 Build 0)  -->
<svg version="1.1" id="Capa_1" xmlns="http://www.w3.org/2000/svg" xmlns:xlink="http://www.w3.org/1999/xlink" x="0px" y="0px"
	 viewBox="0 0 512 512" style="enable-background:new 0 0 512 512;" xml:space="preserve">
<style type="text/css">
	.st0{fill:#C02881;}
</style>
<g>
	<g>
		<path class="st0" d="M507.2,157.6c-3-1.8-6.7-1.9-9.8-0.3l-117.4,61c-4.1,2.1-6.2,6.7-5.1,11.2l2.5,10.7l-79.9-19.4
			c-15-3.7-30.7-0.5-43.2,8.7l-5.1,3.8c-18.4-10.9-40.4-14.3-61.4-9.1l-52.6,13l1.8-7.7c1.1-4.5-1-9.1-5.1-11.2l-117.4-61
			c-3.1-1.6-6.8-1.5-9.8,0.3c-3,1.8-4.8,5.1-4.8,8.5v179.8c0,4.4,2.8,8.2,7,9.5l82.8,26.2c1,0.3,2,0.5,3,0.5c1.7,0,3.4-0.4,4.9-1.3
			c2.4-1.4,4.2-3.7,4.8-6.4l1.4-5.7l7.9,3.8c-4.5,11.6-2,25.3,7.3,34.6c6.2,6.2,14.2,9.3,22.3,9.5c0.2,8.1,3.3,16.1,9.5,22.3
			s14.2,9.3,22.3,9.5c0.2,8.1,3.3,16.1,9.5,22.3s14.2,9.3,22.3,9.5c0.2,8.1,3.3,16.1,9.5,22.3c6.3,6.3,14.6,9.5,23,9.5
			s16.6-3.2,23-9.5l15.1-15.1c4.2-4.2,6.9-9.2,8.4-14.5c3.2,1,6.5,1.5,9.8,1.5c8.3,0,16.6-3.2,23-9.5c6.2-6.2,9.3-14.2,9.5-22.3
			c8.1-0.2,16.1-3.3,22.3-9.5c6.2-6.2,9.3-14.2,9.5-22.3c8.4-0.2,16.3-3.5,22.3-9.5c6.1-6.1,9.5-14.3,9.5-23c0-0.2,0-0.3,0-0.5
			l18.3-9l1.3,5.5c0.6,2.7,2.4,5,4.8,6.4c1.5,0.9,3.2,1.3,4.9,1.3c1,0,2-0.2,3-0.5l82.8-26.2c4.2-1.3,7-5.2,7-9.5V166.1
			C512,162.6,510.2,159.4,507.2,157.6L507.2,157.6z M20,338.6v-156l95.8,49.8l-30.2,127L20,338.6z M133.3,375.3l15.1-15.1
			c2.4-2.4,5.6-3.6,8.8-3.6c3.2,0,6.4,1.2,8.8,3.6c2.4,2.4,3.7,5.5,3.7,8.8c0,3.3-1.3,6.5-3.7,8.8L151,393c-4.9,4.9-12.8,4.9-17.6,0
			C128.5,388.1,128.5,380.2,133.3,375.3z M165.1,407.1l15.1-15.1c2.4-2.4,5.6-3.6,8.8-3.6s6.4,1.2,8.8,3.6c4.9,4.9,4.9,12.8,0,17.6
			l-15.1,15.1c-4.9,4.9-12.8,4.9-17.6,0C160.2,419.9,160.2,412,165.1,407.1L165.1,407.1z M196.9,438.9l15.1-15.1
			c2.4-2.4,5.6-3.6,8.8-3.6c3.2,0,6.4,1.2,8.8,3.6c4.9,4.9,4.9,12.8,0,17.6l-15.1,15.1c-4.9,4.9-12.8,4.9-17.6,0
			C192,451.7,192,443.8,196.9,438.9z M261.4,473.3l-15.1,15.1c-4.9,4.9-12.8,4.9-17.6,0s-4.9-12.8,0-17.6l15.1-15.1
			c2.4-2.4,5.5-3.7,8.8-3.7c3.3,0,6.5,1.3,8.8,3.7C266.3,460.5,266.3,468.4,261.4,473.3L261.4,473.3z M366.1,387.3
			c-2.4,2.4-5.5,3.7-8.8,3.7c-3.3,0-6.5-1.3-8.8-3.7c0,0,0,0,0,0l-54-54c-3.9-3.9-10.2-3.9-14.1,0c-3.9,3.9-3.9,10.2,0,14.1l54,54
			c4.9,4.9,4.9,12.8,0,17.6c-4.9,4.9-12.8,4.9-17.6,0l-54-54c-3.9-3.9-10.2-3.9-14.1,0s-3.9,10.2,0,14.1l54,54
			c2.4,2.4,3.7,5.5,3.7,8.8s-1.3,6.5-3.7,8.8c-4.9,4.9-12.8,4.9-17.6,0c0,0-40.5-40.5-41.2-41.1c-6.2-6.2-14.2-9.3-22.3-9.5
			c-0.2-8.1-3.3-16.1-9.5-22.3c-6.2-6.2-14.2-9.3-22.3-9.5c-0.2-8.4-3.5-16.3-9.5-22.3c-12.7-12.7-33.3-12.7-45.9,0l-10.1,10.1
			l-15.5-7.4l21.4-89.9l62.6-15.5c13-3.2,26.5-2.1,38.6,2.9l-17.9,13.2c-15.1,11.1-19,32.2-8.8,47.9c6.7,10.3,18.1,16.2,29.9,16.2
			c4.3,0,8.6-0.8,12.7-2.4l53.3-20.6c0,0,65.6,68.8,65.7,68.9C371,374.5,371,382.4,366.1,387.3L366.1,387.3z M383.2,358.9
			c-0.9-1.2-72.9-76.8-72.9-76.8c-2.9-3-7.2-3.8-10.8-2.4v0l-59.6,23c-6.8,2.6-14.7,0.1-18.6-6.1c-4.5-6.9-2.8-16.1,3.8-21
			l41.1-30.2c7.7-5.6,17.3-7.6,26.6-5.3l89.5,21.8c0.1,0,0.3,0,0.4,0.1l20.7,87L383.2,358.9z M492,338.6l-65.6,20.8l-30.2-127
			l95.8-49.8V338.6z"/>
		<path class="st0" d="M78.8,166.1h86.8v4.8c0,5.5,4.5,10,10,10H211c5.5,0,10-4.5,10-10s-4.5-10-10-10h-25.4V159
			c0-32.3,26.3-58.5,58.5-58.5h1.9v13.7c0,5.5,4.5,10,10,10c5.5,0,10-4.5,10-10v-13.7h1.9c32.3,0,58.5,26.3,58.5,58.5v1.9H301
			c-5.5,0-10,4.5-10,10s4.5,10,10,10h35.4c5.5,0,10-4.5,10-10v-4.8h86.8c5.5,0,10-4.5,10-10v-10.8c0-32.2-21.2-59.6-50.4-68.8
			c4.9-6.7,7.8-14.9,7.8-23.8V40.4c0-22.3-18.1-40.4-40.4-40.4s-40.4,18.1-40.4,40.4v12.3c0,8.9,2.9,17.1,7.7,23.7
			c-8.6,2.7-16.6,7-23.7,12.8c-4.3-2.2-8.9-4.1-13.6-5.5c5.8-7.4,9.2-16.6,9.2-26.7V43.5C299.4,19.5,280,0,256,0
			s-43.4,19.5-43.4,43.4V57c0,10.1,3.5,19.3,9.2,26.7c-4.7,1.4-9.3,3.3-13.6,5.5c-7.1-5.8-15.1-10.1-23.7-12.8
			c4.9-6.7,7.7-14.9,7.7-23.7V40.4c0-22.3-18.1-40.4-40.4-40.4s-40.4,18.1-40.4,40.4v12.3c0,8.9,2.9,17.1,7.8,23.8
			c-29.2,9.3-50.4,36.6-50.4,68.8v10.8C68.8,161.6,73.3,166.1,78.8,166.1L78.8,166.1z M339.8,40.4c0-11.2,9.1-20.4,20.4-20.4
			c11.2,0,20.4,9.1,20.4,20.4v12.3c0,11.2-9.1,20.4-20.4,20.4s-20.4-9.1-20.4-20.4V40.4z M349.4,93.1h0.8v9.2c0,5.5,4.5,10,10,10
			s10-4.5,10-10v-9.2h0.8c28.8,0,52.2,23.4,52.2,52.2v0.8h-77.9c-2.9-17.5-11.7-33.1-24.2-44.7C329.5,96,339.2,93.1,349.4,93.1
			L349.4,93.1z M232.6,43.5c0-12.9,10.5-23.4,23.4-23.4c12.9,0,23.4,10.5,23.4,23.4V57c0,12.9-10.5,23.4-23.4,23.4
			S232.6,69.9,232.6,57V43.5z M131.5,40.4c0-11.2,9.1-20.4,20.4-20.4s20.4,9.1,20.4,20.4v12.3c0,11.2-9.1,20.4-20.4,20.4
			c-11.2,0-20.4-9.1-20.4-20.4V40.4z M88.8,145.3c0-28.8,23.4-52.2,52.2-52.2h0.8v9.2c0,5.5,4.5,10,10,10s10-4.5,10-10v-9.2h0.8
			c10.2,0,19.9,2.9,28.3,8.3c-12.5,11.6-21.3,27.2-24.2,44.7H88.8L88.8,145.3z"/>
		<circle class="st0" cx="256" cy="170.9" r="10"/>
	</g>
</g>
</svg>
