<?xml version="1.0" encoding="utf-8"?>
<!-- Generator: Adobe Illustrator 25.4.1, SVG Export Plug-In . SVG Version: 6.00 Build 0)  -->
<svg version="1.1" id="Capa_1" xmlns="http://www.w3.org/2000/svg" xmlns:xlink="http://www.w3.org/1999/xlink" x="0px" y="0px"
	 viewBox="0 0 512 512" style="enable-background:new 0 0 512 512;" xml:space="preserve">
<style type="text/css">
	.st0{fill:#C02881;}
</style>
<path class="st0" d="M380.2,131.8C353.7,55.1,281.1,0,196,0C88.2,0,0,88.2,0,196c0,85.1,55.1,157.7,131.8,184.2
	C158.3,456.9,230.9,512,316,512c107.8,0,196-88.2,196-196C512,230.9,456.9,158.3,380.2,131.8z M30,196c0-91.5,74.5-166,166-166
	c65,0,121.3,38,148.2,93c-9.2-1.3-18.6-2-28.2-2c-107.8,0-195,87.8-195,195c0,9.6,0.7,19,2,28.2C68,317.3,30,261,30,196z
	 M301.5,322.7L189.3,210.5c6.4-7.7,13.5-14.8,21.2-21.2l112.3,112.3C316.3,309.2,309.2,316.3,301.5,322.7L301.5,322.7z M246.9,353
	L159,265.1c3.4-10.3,7.7-20.2,12.9-29.5L276.4,340C267.1,345.3,257.2,349.6,246.9,353L246.9,353z M151.8,300.2l60,60
	c-18.9,1.8-37.8,0.4-55.9-4.1C151.4,338,150,319.2,151.8,300.2L151.8,300.2z M340,276.4L235.6,172c9.3-5.2,19.2-9.6,29.5-12.9
	l87.9,87.8C349.6,257.2,345.3,267.1,340,276.4z M360.2,211.8l-60-60c18.9-1.8,37.8-0.4,55.9,4.1C360.6,174,362,192.8,360.2,211.8z
	 M316,482c-65,0-121.3-38-148.2-93c129.4,18.6,239.7-92.3,221.2-221.2c55,26.9,93,83.2,93,148.2C482,407.5,407.5,482,316,482z"/>
</svg>
