<?xml version="1.0" encoding="utf-8"?>
<!-- Generator: Adobe Illustrator 25.4.1, SVG Export Plug-In . SVG Version: 6.00 Build 0)  -->
<svg version="1.1" id="Capa_1" xmlns="http://www.w3.org/2000/svg" xmlns:xlink="http://www.w3.org/1999/xlink" x="0px" y="0px"
	 viewBox="0 0 512 512" style="enable-background:new 0 0 512 512;" xml:space="preserve">
<style type="text/css">
	.st0{fill:#C02881;}
</style>
<g>
	<path class="st0" d="M467.3,133.7c-0.3-13.6-0.5-26.5-0.5-38.9c0-9.7-7.9-17.7-17.7-17.7c-75.5,0-133-21.7-180.9-68.3
		c-6.9-6.7-17.8-6.7-24.6,0C195.8,55.4,138.3,77.1,62.8,77.1c-9.7,0-17.7,7.9-17.7,17.7c0,12.4-0.2,25.3-0.5,38.9
		c-2.4,126.7-5.7,300.2,205.5,373.4c1.9,0.6,3.8,1,5.8,1c2,0,3.9-0.3,5.8-1C473,433.9,469.7,260.4,467.3,133.7z M256,471.8
		C74.8,405.9,77.5,261.8,80,134.4c0.1-7.6,0.3-15.1,0.4-22.3c70.7-3,127.2-24.4,175.6-66.6c48.4,42.2,104.9,63.6,175.6,66.6
		c0.1,7.3,0.2,14.7,0.4,22.3C434.5,261.7,437.2,405.9,256,471.8z"/>
	<path class="st0" d="M316.8,194.7l-85.2,85.2l-36.4-36.4c-6.9-6.9-18.1-6.9-25,0c-6.9,6.9-6.9,18.1,0,25l48.8,48.8
		c3.4,3.4,8,5.2,12.5,5.2c4.5,0,9-1.7,12.5-5.2l97.7-97.7c6.9-6.9,6.9-18.1,0-25C334.8,187.8,323.7,187.8,316.8,194.7z"/>
</g>
</svg>
